<svg xmlns="http://www.w3.org/2000/svg" version="1.1" xmlns:xlink="http://www.w3.org/1999/xlink" xmlns:svgjs="http://svgjs.dev/svgjs" width="1000" height="1000" viewBox="0 0 1000 1000"><rect width="1000" height="1000" fill="#000000"></rect><g transform="matrix(0.7,0,0,0.7,149.57575757575756,438.84317961283205)"><svg viewBox="0 0 396 69" data-background-color="#ffffff" preserveAspectRatio="xMidYMid meet" height="174" width="1000" xmlns="http://www.w3.org/2000/svg" xmlns:xlink="http://www.w3.org/1999/xlink"><g id="tight-bounds" transform="matrix(1,0,0,1,0.2400000000000091,0.14548938189315663)"><svg viewBox="0 0 395.52 68.70902123621369" height="68.70902123621369" width="395.52"><g><svg viewBox="0 0 462.25543777200016 80.3021811550152" height="68.70902123621369" width="395.52"><g transform="matrix(1,0,0,1,66.73543777200018,11.098203039513681)"><svg viewBox="0 0 395.52 58.10577507598784" height="58.10577507598784" width="395.52"><g id="textblocktransform"><svg viewBox="0 0 395.52 58.10577507598784" height="58.10577507598784" width="395.52" id="textblock"><g><svg viewBox="0 0 395.52 58.10577507598784" height="58.10577507598784" width="395.52"><g transform="matrix(1,0,0,1,0,0)"><svg width="395.52" viewBox="1.25 -35.5 246.73 36.25" height="58.10577507598784" data-palette-color="#0074d9"><path d="M8.75 0L8.75-0.75 11.75-1.5 11.75-33.75 6-33.75Q6-30.7 4.35-27.9L4.35-27.9Q3.65-26.75 2.75-26L2.75-26 1.25-26 1.25-35 30.5-35 30.5-26 29-26Q28.05-26.75 27.35-27.9L27.35-27.9Q25.75-30.6 25.75-33.75L25.75-33.75 20-33.75 20-1.5 23-0.75 23 0 8.75 0ZM34.25 0L34.25-0.75 37.25-1.5 37.25-33.5 34.25-34.25 34.25-35 47.5-35Q56-35 59.75-32.43 63.5-29.85 63.5-25.25L63.5-25.25Q63.5-22.15 61.85-20.23 60.2-18.3 57.6-17.35L57.6-17.35Q54.85-16.3 51.75-16.25L51.75-16.25 51.75-16Q53.6-15.9 55-15.45L55-15.45Q58.5-14.35 59.75-11.5L59.75-11.5 64.25-1.5 66.75-0.75 66.75 0 59.75 0Q55.65 0 53.75-4.25L53.75-4.25 48.75-15.5 45.5-15.5 45.5-1.5 49-0.75 49 0 34.25 0ZM45.5-16.75L47.5-16.75Q51-16.75 53-18.95 55-21.15 55-25.25L55-25.25Q55-29.35 53-31.55 51-33.75 47.5-33.75L47.5-33.75 45.5-33.75 45.5-16.75ZM65.75 0L65.75-0.75 69.75-2.25 83.5-35.5 85-35.5 99.25-1.5 101.75-0.75 101.75 0 95.75 0Q93.15 0 91.5-1.18 89.84-2.35 89.05-4.25L89.05-4.25 86.5-10.25 74.55-10.25 71.25-2.25 75-0.75 75 0 65.75 0ZM80.5-24.65L75.05-11.5 86-11.5 80.5-24.65ZM113.99 0.5L98.99-33.5 96.49-34.25 96.49-35 102.49-35Q105.09-35 106.74-33.83 108.39-32.65 109.24-30.75L109.24-30.75 118.09-10.6 126.24-32.75 122.49-34.25 122.49-35 131.74-35 131.74-34.25 127.74-32.75 115.49 0.5 113.99 0.5ZM133.24 0L133.24-0.75 136.24-1.5 136.24-33.5 133.24-34.25 133.24-35 159.99-35 159.99-26 158.49-26Q157.54-26.75 156.84-27.9L156.84-27.9Q155.24-30.6 155.24-33.75L155.24-33.75 144.49-33.75 144.49-18 150.24-18Q150.59-19.9 151.54-21.55L151.54-21.55Q151.94-22.3 152.49-23L152.49-23 153.99-23 153.99-11.75 152.49-11.75Q151.94-12.45 151.54-13.2L151.54-13.2Q150.59-14.85 150.24-16.75L150.24-16.75 144.49-16.75 144.49-1.25 156.24-1.25Q156.24-4.4 157.84-7.1L157.84-7.1Q158.54-8.25 159.49-9L159.49-9 160.99-9 160.99 0 133.24 0ZM165.49 0L165.49-0.75 168.49-1.5 168.49-33.5 165.49-34.25 165.49-35 179.74-35 179.74-34.25 176.74-33.5 176.74-1.25 187.49-1.25Q187.49-4.4 189.09-7.1L189.09-7.1Q189.79-8.25 190.74-9L190.74-9 192.24-9 192.24 0 165.49 0ZM210.24 0L195.99 0 195.99-0.75 198.99-1.5 198.99-33.5 195.99-34.25 195.99-35 210.24-35 210.24-34.25 207.24-33.5 207.24-1.5 210.24-0.75 210.24 0ZM242.48 0.75L219.23-26.5 219.23-2.25 223.23-0.75 223.23 0 213.73 0 213.73-0.75 217.73-2.25 217.73-33.25 214.23-34.25 214.23-35 219.48-35Q222.13-35 223.63-34.05 225.13-33.1 226.48-31.5L226.48-31.5 242.48-12.75 242.48-32.75 238.48-34.25 238.48-35 247.98-35 247.98-34.25 243.98-32.75 243.98 0.75 242.48 0.75Z" opacity="1" transform="matrix(1,0,0,1,0,0)" fill="#ffffff" class="undefined-text-0" data-fill-palette-color="primary" id="text-0"></path></svg></g></svg></g></svg></g></svg></g><g><svg viewBox="0 0 53.018058815161275 80.3021811550152" height="80.3021811550152" width="53.018058815161275"><g><svg xmlns="http://www.w3.org/2000/svg" xmlns:xlink="http://www.w3.org/1999/xlink" version="1.1" x="0" y="0" viewBox="21.5355 9.940577143346353 55.75686016966516 84.45042285665366" enable-background="new 0 0 100 100" xml:space="preserve" height="80.3021811550152" width="53.018058815161275" class="icon-icon-0" data-fill-palette-color="accent" id="icon-0"><path d="M25.146 24.079c7.602-13.395 24.6-18.105 37.995-10.504 13.395 7.57 18.123 24.597 10.52 37.991L49.419 94.391 25.146 51.566C20.332 43.046 20.332 32.616 25.146 24.079zM73.941 37.815c0-13.528-10.994-24.521-24.522-24.521-13.559 0-24.555 10.993-24.555 24.521 0 13.56 10.996 24.554 24.555 24.554C62.947 62.369 73.941 51.375 73.941 37.815L73.941 37.815z" fill="#ffffff" data-fill-palette-color="accent"></path><g fill="#53caf9" data-fill-palette-color="accent"><path d="M41.875 53.094c0 0.681 0.535 1.229 1.203 1.229s1.229-0.534 1.229-1.2v-1.629h10.196v1.629c0 0.666 0.549 1.2 1.23 1.2 0.666 0 1.199-0.534 1.199-1.2 0-0.029 0-1.629 0-1.629h0.387c1.318 0 2.4-1.082 2.4-2.401v-18.79c0-1.317-1.082-2.399-2.4-2.399h-0.654v23.591c0 0.518-0.43 0.946-0.932 0.946-0.521 0-0.949-0.429-0.949-0.946V27.903H44.025v23.591c0 0.518-0.4 0.946-0.934 0.946-0.504 0-0.936-0.429-0.936-0.946V27.903h-0.65c-1.332 0-2.414 1.082-2.414 2.399v18.79c0 1.319 1.082 2.401 2.414 2.401h0.369V53.094z" fill="#ffffff" data-fill-palette-color="accent"></path></g><g fill="#53caf9" data-fill-palette-color="accent"><path d="M49.492 21.829h-2.873v4.74c0 0.342-0.268 0.592-0.594 0.592s-0.592-0.25-0.592-0.592v-4.74h-2.652c-0.074 0-0.135-0.047-0.135-0.121 0-1.317 1.068-2.399 2.4-2.399h4.445 4.459c1.32 0 2.389 1.082 2.389 2.399 0 0.074-0.061 0.121-0.121 0.121h-2.664v4.74c0 0.342-0.268 0.592-0.594 0.592-0.342 0-0.592-0.25-0.592-0.592v-4.74H49.492z" fill="#ffffff" data-fill-palette-color="accent"></path></g></svg></g></svg></g></svg></g><defs></defs></svg><rect width="395.52" height="68.70902123621369" fill="none" stroke="none" visibility="hidden"></rect></g></svg></g></svg>